# Blender v2.74 (sub 0) OBJ File: 'marker.blend'
# www.blender.org
mtllib marker.mtl
o Cone
v 0.000000 0.853578 0.550000
v 0.476314 0.853578 0.275000
v 0.476314 0.853578 -0.275000
v -0.000000 0.853578 -0.550000
v 0.000000 -0.090743 0.000000
v -0.476314 0.853578 -0.275000
v -0.476314 0.853578 0.275000
v 0.075584 3.010481 0.075584
v 0.075584 3.010481 -0.075584
v -0.075584 3.010481 -0.075584
v -0.075584 3.010481 0.075584
v 0.203469 0.851413 0.203469
v 0.203469 0.851413 -0.203469
v -0.203469 0.851413 -0.203469
v -0.203469 0.851413 0.203469
vn -0.790800 0.407600 -0.456600
vn 0.000000 -1.000000 0.000000
vn -0.790800 0.407600 0.456600
vn 0.000000 0.407600 0.913100
vn 0.790800 0.407600 0.456600
vn 0.000000 0.407600 -0.913100
vn 0.790800 0.407600 -0.456600
vn 0.561200 0.608300 0.561200
vn 0.561200 0.608300 -0.561200
vn -0.561200 0.608300 -0.561200
vn -0.561200 0.608300 0.561200
vn 0.592200 -0.546300 0.592200
vn -0.592200 -0.546300 0.592200
vn -0.592200 -0.546300 -0.592200
vn 0.592200 -0.546300 -0.592200
usemtl Material.001
s 1
f 6//1 5//2 7//3
f 1//4 5//2 2//5
f 4//6 5//2 6//1
f 3//7 5//2 4//6
f 7//3 5//2 1//4
f 2//5 5//2 3//7
f 1//4 2//5 3//7 4//6 6//1 7//3
usemtl Material
f 8//8 9//9 10//10 11//11
f 12//12 15//13 14//14 13//15
f 8//8 12//12 13//15 9//9
f 9//9 13//15 14//14 10//10
f 10//10 14//14 15//13 11//11
f 12//12 8//8 11//11 15//13
